# xmcd
#
# Track frame offsets: 
#        150
#        18665
#        34187
#        49837
#        66740
#        82167
#        94688
#        115485
#        130007
#        144067
#        154469
#
# Disc length: 2232 seconds
#
# Revision: 2
# Processed by: cddbd v1.5.2PL0 Copyright (c) Steve Scherf et al.
# Submitted via: ExactAudioCopy v1.0b3
#
DISCID=9d08b60b
DTITLE=Deacon Jones - Jonesen for Money
DYEAR=2006
DGENRE=Blues
TTITLE0=If the Blues Was Money
TTITLE1=Nothin´ But the Blues
TTITLE2=Chasin You
TTITLE3=Hit Man
TTITLE4=Ive Done Changed
TTITLE5=I Know, I Owe
TTITLE6=My Hometown
TTITLE7=Shaken
TTITLE8=Drinkin Bad Whiskey
TTITLE9=Hard Headed Woman
TTITLE10=Mr. Badluck
EXTD=Deacon Jones "Jonesen for Money" 
EXTT0=
EXTT1=
EXTT2=
EXTT3=
EXTT4=
EXTT5=
EXTT6=
EXTT7=
EXTT8=
EXTT9=
EXTT10=
PLAYORDER=
